<?xml version="1.0" encoding="UTF-8" standalone="no"?>
<svg
   width="68"
   height="75"
   viewBox="0 0 68 75"
   fill="none"
   version="1.1"
   id="svg7"
   sodipodi:docname="icon_language_line.svg"
   inkscape:version="1.4.4 (dcaf3e7, 2026-05-05)"
   xmlns:inkscape="http://www.inkscape.org/namespaces/inkscape"
   xmlns:sodipodi="http://sodipodi.sourceforge.net/DTD/sodipodi-0.dtd"
   xmlns="http://www.w3.org/2000/svg"
   xmlns:svg="http://www.w3.org/2000/svg">
  <defs
     id="defs7" />
  <sodipodi:namedview
     id="namedview7"
     pagecolor="#ffffff"
     bordercolor="#000000"
     borderopacity="0.25"
     inkscape:showpageshadow="2"
     inkscape:pageopacity="0.0"
     inkscape:pagecheckerboard="0"
     inkscape:deskcolor="#d1d1d1"
     inkscape:zoom="3.1336754"
     inkscape:cx="66.854404"
     inkscape:cy="15.636591"
     inkscape:window-width="1710"
     inkscape:window-height="1041"
     inkscape:window-x="0"
     inkscape:window-y="43"
     inkscape:window-maximized="1"
     inkscape:current-layer="svg7" />
  <path
     d="M56.4792 12.965C41.9338 12.5286 27.3883 13.6923 12.8429 14.4195C12.1156 30.4195 13.5701 49.3286 14.2974 65.3286C28.8429 65.765 43.3883 64.6013 57.9338 63.8741C58.661 47.8741 57.2065 28.965 56.4792 12.965Z"
     stroke="black"
     stroke-width="4"
     stroke-linecap="round"
     stroke-linejoin="round"
     id="path2" />
  <path
     d="M20.1157 14.4196C19.6793 30.4196 20.5521 49.3286 20.1157 65.3286"
     stroke="black"
     stroke-width="4"
     stroke-linecap="round"
     id="path3" />
  <path
     d="M27.3882 28.9649C34.6609 28.5286 43.3882 28.8195 50.6609 28.5286"
     stroke="black"
     stroke-width="4"
     stroke-linecap="round"
     id="path4" />
  <path
     d="M27.3882 39.1468C34.6609 38.7104 43.3882 39.0014 50.6609 38.7104"
     stroke="black"
     stroke-width="4"
     stroke-linecap="round"
     id="path5" />
  <path
     d="M27.3882 49.3286C34.6609 48.8922 43.3882 49.1831 50.6609 48.8922"
     stroke="black"
     stroke-width="4"
     stroke-linecap="round"
     id="path6" />
  <path
     d="M44.843 13.965C45.1339 12.5104 44.5521 11.0559 44.843 9.60132"
     stroke="black"
     stroke-width="5"
     stroke-linecap="round"
     id="path7" />
</svg>
